<svg height="512pt" viewBox="-30 0 512 512" width="512pt" xmlns="http://www.w3.org/2000/svg"><path d="m225.460938 329.917969c-19.453126 0-37.894532-4.410157-54.386719-12.273438 2.011719 3.382813 19.8125 31.5 55.707031 31.5 38.191406 0 54.347656-31.839843 54.347656-31.839843v-.277344c-16.8125 8.246094-35.699218 12.886718-55.65625 12.886718h-.011718zm0 0"/><path d="m322.261719 203.125v-71.910156c-.003907-1.226563-.550781-59.988282-51.980469-59.996094-11.972656 0-26.695312 3.183594-44.824219 11.019531-14.316406-5.6875-26.558593-8.046875-37.019531-8.050781-51.414062 0-59.769531 57.054688-59.769531 57.054688v71.882812c0 53.371094 43.421875 96.792969 96.792969 96.792969h.007812c53.375-.003907 96.792969-43.421875 96.792969-96.792969zm0 0"/><path d="m188.4375 44.1875c11.457031 0 23.652344 2.015625 36.386719 6.003906 16.449219-6.027344 31.40625-8.972656 45.445312-8.972656 18.644531.003906 34.910157 5.257812 48.359375 15.613281 5.269532 4.054688 9.976563 8.8125 14.09375 14.234375-12.796875-41.125-51.21875-71.066406-96.5-71.066406h-21.511718c-50.261719 0-92.066407 36.890625-99.765626 85.019531 16.6875-26.355469 42.683594-40.832031 73.492188-40.832031zm0 0"/><path d="m98.925781 211.046875c-.164062-2.621094-.257812-5.261719-.257812-7.921875v-65.589844c-15.5 3.601563-27.054688 17.488282-27.054688 34.085938v5.285156c0 16.6875 11.679688 30.636719 27.3125 34.140625zm0 0"/><path d="m379.320312 171.527344v-5.285156c0-16.597657-11.554687-30.484376-27.054687-34.082032v70.964844c0 .832031-.019531 1.664062-.035156 2.492188 15.519531-3.585938 27.089843-17.484376 27.089843-34.089844zm0 0"/><path d="m226.003906 437c-8.269531 0-15 6.726562-15 15 0 8.269531 6.730469 15 15 15 8.273438 0 15-6.730469 15-15 0-8.273438-6.726562-15-15-15zm0 0"/><path d="m306.007812 391.996094h-116.886718v-3.855469c0-8.285156-6.71875-15-15-15-8.285156 0-15.003906 6.714844-15.003906 15v3.855469h-13.113282c-8.285156 0-15 6.71875-15 15v90.003906c0 8.285156 6.714844 15 15 15h160.003906c8.28125 0 15-6.714844 15-15v-90.003906c0-8.28125-6.71875-15-15-15zm-80.003906 105.003906c-24.8125 0-45-20.1875-45-45 0-24.816406 20.1875-45.003906 45-45.003906s45 20.1875 45 45.003906c0 24.8125-20.1875 45-45 45zm0 0"/><path d="m136.859375 362.929688c4.683594-6.898438 11.234375-12.417969 18.914063-15.863282-4.886719-5.386718-8.609376-10.679687-11.113282-15.175781-.539062-.976563-1.015625-1.980469-1.445312-3.003906l-40.488282 16.308593c-36.507812 14.511719-64.492187 44.75-76.140624 82.269532l-26.585938 84.34375h103.519531c-1.625-4.640625-2.515625-9.621094-2.515625-14.808594v-90.003906c0-21.679688 15.414063-39.828125 35.855469-44.066406zm0 0"/><path d="m348.492188 511.8125h102.515624l-25.585937-84.347656c-11.644531-37.519532-39.632813-67.757813-76.140625-82.269532l-40.519531-16.230468c-.273438.648437-.5625 1.289062-.878907 1.917968-4.589843 9.042969-13.824218 21.242188-27.578124 31.113282h25.699218c24.816406 0 45 20.1875 45 45v90.003906c.003906 5.1875-.890625 10.167969-2.511718 14.8125zm0 0"/></svg>